<svg xmlns="http://www.w3.org/2000/svg" viewBox="0 0 512 512">
  <rect width="512" height="512" rx="104" fill="#15120f"/>
  <path d="M256 66c56 60 80 118 80 190 0 104-38 166-80 190-42-24-80-86-80-190 0-72 24-130 80-190z" fill="#8a2f24"/>
  <path d="M256 82c35 55 50 111 50 174 0 83-21 139-50 166-29-27-50-83-50-166 0-63 15-119 50-174z" fill="#d6a85d"/>
  <path d="M218 96v320M244 80v352M268 80v352M294 96v320" stroke="#f4efe7" stroke-width="10" stroke-linecap="round"/>
  <path d="M149 282c68-28 145-30 214-4" stroke="#2e9b8d" stroke-width="24" stroke-linecap="round"/>
</svg>
